<?xml version="1.0" standalone="no"?>
<!DOCTYPE svg PUBLIC "-//W3C//DTD SVG 20010904//EN"
 "http://www.w3.org/TR/2001/REC-SVG-20010904/DTD/svg10.dtd">
<svg version="1.0" xmlns="http://www.w3.org/2000/svg"
 width="1080.000000pt" height="1080.000000pt" viewBox="0 0 1080.000000 1080.000000"
 preserveAspectRatio="xMidYMid meet">

<g transform="translate(0.000000,1080.000000) scale(0.100000,-0.100000)"
fill="#000000" stroke="none">
<path d="M5000 10379 c-1180 -102 -2249 -591 -3089 -1414 -669 -655 -1137
-1468 -1355 -2357 -115 -466 -151 -796 -143 -1298 5 -336 17 -473 67 -765 330
-1934 1813 -3525 3724 -3995 411 -101 759 -142 1201 -142 257 0 411 9 635 38
890 113 1774 488 2470 1048 1089 875 1755 2126 1871 3511 24 290 13 721 -27
1035 -180 1432 -1005 2743 -2229 3542 -180 118 -299 186 -515 293 -565 282
-1169 449 -1825 505 -139 11 -646 11 -785 -1z m900 -84 c908 -98 1729 -420
2449 -960 1103 -829 1795 -2046 1946 -3425 23 -202 30 -626 16 -835 -75 -1062
-464 -2024 -1152 -2850 -115 -137 -359 -386 -505 -514 -917 -804 -2048 -1231
-3259 -1231 -526 0 -1030 81 -1530 245 -225 73 -369 132 -600 244 -523 254
-928 542 -1341 955 -404 404 -689 803 -939 1311 -264 536 -415 1061 -482 1675
-24 227 -24 757 0 980 69 623 222 1150 487 1685 248 500 538 904 934 1301 186
185 348 326 541 470 658 489 1428 808 2230 923 121 17 198 25 435 45 105 9
634 -4 770 -19z"/>
<path d="M4231 5399 c-103 -20 -173 -105 -173 -208 0 -129 88 -214 222 -215
73 0 127 24 167 74 19 23 20 30 9 39 -11 9 -19 5 -37 -20 -65 -92 -201 -81
-258 21 -20 35 -23 52 -19 110 4 77 21 109 78 148 24 16 47 22 88 22 53 0 58
-2 98 -45 33 -36 44 -42 52 -32 17 21 -54 85 -113 103 -53 15 -52 15 -114 3z"/>
<path d="M5073 5398 c-14 -16 -193 -397 -193 -409 0 -5 6 -9 14 -9 8 0 29 32
47 70 l33 70 88 0 88 0 31 -70 c30 -67 33 -70 65 -70 19 0 34 3 34 7 0 9 -181
405 -190 416 -4 4 -12 2 -17 -5z m51 -225 c7 -22 5 -23 -63 -23 -39 0 -71 2
-71 5 0 3 16 38 36 77 l36 72 28 -54 c15 -30 31 -65 34 -77z"/>
<path d="M5795 5403 c-48 -10 -77 -28 -90 -54 -35 -67 -7 -123 87 -173 95 -51
118 -73 118 -111 0 -28 -6 -37 -30 -50 -16 -8 -38 -15 -50 -15 -31 0 -75 26
-98 56 -13 19 -24 25 -36 21 -16 -6 -16 -9 1 -38 25 -43 68 -63 133 -63 88 -1
143 44 143 114 0 46 -30 78 -127 133 -98 56 -118 82 -93 121 9 13 30 27 46 31
39 8 98 -17 113 -49 13 -30 48 -35 48 -8 0 25 -50 70 -91 82 -35 10 -41 11
-74 3z"/>
<path d="M6572 5398 c-6 -7 -30 -56 -55 -108 -24 -52 -65 -139 -91 -193 -50
-105 -53 -117 -33 -117 7 0 28 32 47 70 l34 70 88 0 88 0 31 -70 c30 -67 33
-70 66 -70 29 0 33 3 29 18 -8 23 -183 402 -189 408 -2 3 -9 -1 -15 -8z m52
-225 c7 -22 5 -23 -63 -23 -39 0 -71 2 -71 5 0 3 16 38 36 77 l36 72 28 -54
c15 -30 31 -65 34 -77z"/>
<path d="M3342 2480 c-40 -83 -72 -153 -72 -155 0 -3 6 -5 13 -5 7 0 23 23 34
50 l21 50 66 0 65 0 22 -50 c19 -43 25 -50 50 -50 l28 0 -35 78 c-20 42 -52
112 -71 155 -20 42 -39 77 -43 77 -4 0 -39 -68 -78 -150z m96 8 l21 -48 -55 0
c-49 0 -54 2 -45 18 5 9 16 35 25 56 19 45 25 42 54 -26z"/>
<path d="M5004 2533 c-62 -132 -94 -203 -94 -208 0 -3 4 -5 10 -5 5 0 21 23
35 50 l25 50 63 0 64 0 23 -50 c18 -39 29 -50 47 -50 13 0 23 3 23 7 0 16
-135 303 -143 303 -4 0 -28 -44 -53 -97z m84 -88 c-3 -4 -27 -5 -52 -3 l-46 3
26 55 26 55 26 -52 c14 -29 23 -55 20 -58z"/>
<path d="M6033 2620 c-46 -19 -58 -92 -20 -127 12 -11 41 -30 63 -42 55 -27
74 -47 74 -77 0 -52 -80 -57 -126 -7 -35 37 -55 17 -22 -22 19 -21 35 -29 74
-32 116 -10 169 102 73 155 -95 52 -119 72 -119 96 0 52 67 61 112 15 21 -20
34 -27 41 -20 6 6 0 20 -21 40 -32 33 -81 40 -129 21z"/>
<path d="M6850 2487 c-38 -81 -70 -152 -70 -157 0 -25 22 -6 43 38 l22 47 66
3 66 3 22 -51 c18 -41 26 -50 46 -50 14 0 25 3 25 6 0 10 -131 289 -140 298
-6 6 -36 -45 -80 -137z m89 14 c11 -27 21 -52 21 -55 0 -3 -23 -6 -51 -6 -28
0 -49 4 -47 8 2 4 12 29 23 55 11 26 23 47 26 47 4 0 16 -22 28 -49z"/>
<path d="M7292 2614 c-101 -52 -122 -176 -43 -255 40 -40 101 -57 160 -44 37
8 91 50 91 71 0 21 -14 17 -41 -12 -34 -37 -64 -46 -109 -34 -126 34 -115 241
15 266 38 7 71 -7 102 -44 23 -27 45 -23 27 5 -35 56 -138 79 -202 47z"/>
<path d="M8136 2609 c-20 -16 -26 -29 -26 -59 0 -42 19 -62 108 -111 50 -27
63 -60 37 -89 -27 -30 -72 -26 -105 10 -46 49 -71 35 -27 -16 51 -59 176 -35
192 36 9 43 -7 63 -90 113 -75 45 -94 78 -59 104 29 21 63 15 96 -18 21 -20
34 -27 41 -20 6 6 0 20 -21 40 -25 25 -39 31 -75 31 -30 0 -53 -7 -71 -21z"/>
<path d="M2490 2470 l0 -150 90 0 c126 0 160 19 160 89 0 29 -26 61 -51 61
-11 1 -11 3 2 13 25 19 41 57 35 83 -10 38 -54 54 -151 54 l-85 0 0 -150z
m163 116 c20 -15 23 -66 5 -84 -7 -7 -34 -12 -60 -12 l-48 0 0 55 0 55 43 0
c23 0 50 -7 60 -14z m20 -147 c9 -12 17 -29 17 -39 0 -31 -48 -60 -96 -60
l-44 0 0 66 0 67 53 -6 c36 -5 57 -13 70 -28z"/>
<path d="M2910 2470 l0 -150 25 0 c24 0 25 2 25 70 0 60 2 70 18 70 10 0 39
-29 70 -70 45 -60 57 -70 83 -70 24 0 29 3 22 13 -6 6 -29 36 -51 65 -23 30
-42 57 -42 61 0 4 11 14 25 21 29 15 45 57 34 86 -14 40 -48 54 -131 54 l-78
0 0 -150z m144 108 c9 -12 16 -30 16 -40 0 -30 -37 -58 -75 -58 l-35 0 0 60 0
60 39 0 c30 0 44 -6 55 -22z"/>
<path d="M3680 2610 c0 -6 40 -10 100 -10 55 0 100 -3 100 -6 0 -3 -38 -54
-84 -113 -46 -59 -91 -120 -101 -134 l-17 -27 146 0 c91 0 146 4 146 10 0 6
-42 10 -105 10 -58 0 -105 3 -105 8 0 4 45 65 100 136 55 71 100 130 100 132
0 2 -63 4 -140 4 -87 0 -140 -4 -140 -10z"/>
<path d="M4118 2610 c-1 -5 -2 -73 0 -150 l3 -140 25 0 24 0 0 150 0 150 -24
0 c-13 0 -26 -4 -28 -10z"/>
<path d="M4350 2471 l0 -151 105 0 c63 0 105 4 105 10 0 6 -32 10 -75 10 l-74
0 -3 138 -3 137 -27 3 -28 3 0 -150z"/>
<path d="M4710 2470 l0 -150 25 0 25 0 0 150 0 150 -25 0 -25 0 0 -150z"/>
<path d="M5350 2470 c0 -125 2 -150 15 -150 12 0 15 22 17 116 l3 115 104
-120 c57 -67 107 -121 112 -121 5 0 9 70 9 155 0 130 -2 155 -15 155 -11 0
-15 -21 -17 -106 l-3 -107 -94 107 c-55 61 -102 106 -113 106 -17 0 -18 -12
-18 -150z"/>
<path d="M6370 2470 c0 -125 2 -150 15 -150 12 0 15 22 17 116 l3 116 104
-121 c57 -67 108 -121 112 -121 5 0 9 70 9 155 0 130 -2 155 -15 155 -11 0
-15 -21 -17 -107 l-3 -107 -94 107 c-55 62 -102 107 -113 107 -17 0 -18 -12
-18 -150z"/>
<path d="M7680 2470 l0 -150 25 0 c24 0 25 2 25 70 0 39 3 70 7 70 3 0 41 -31
84 -70 62 -57 83 -70 110 -70 32 0 31 1 -61 88 l-94 88 72 62 c46 39 66 62 55
62 -10 0 -29 -10 -43 -23 -44 -39 -117 -97 -124 -97 -3 0 -6 27 -6 60 0 57 -1
60 -25 60 l-25 0 0 -150z"/>
</g>
</svg>
