<?xml version="1.0" encoding="UTF-8"?>
<!DOCTYPE svg PUBLIC "-//W3C//DTD SVG 1.1//EN" "http://www.w3.org/Graphics/SVG/1.1/DTD/svg11.dtd">
<svg xmlns="http://www.w3.org/2000/svg" version="1.1" width="513px" height="513px" style="shape-rendering:geometricPrecision; text-rendering:geometricPrecision; image-rendering:optimizeQuality; fill-rule:evenodd; clip-rule:evenodd" xmlns:xlink="http://www.w3.org/1999/xlink">
<g><path style="opacity:1" fill="#019b39" d="M 13.5,91.5 C 175.5,91.3333 337.5,91.5 499.5,92C 501.333,93.1667 502.833,94.6667 504,96.5C 504.667,196.5 504.667,296.5 504,396.5C 502.833,398.333 501.333,399.833 499.5,401C 337.5,401.667 175.5,401.667 13.5,401C 11.6667,399.833 10.1667,398.333 9,396.5C 8.33333,296.5 8.33333,196.5 9,96.5C 10.3657,94.6383 11.8657,92.9717 13.5,91.5 Z"/></g>
<g><path style="opacity:1" fill="#fcde01" d="M 252.5,115.5 C 255.425,115.46 258.091,116.293 260.5,118C 329.324,162.003 397.99,206.17 466.5,250.5C 396.345,296.326 325.678,341.326 254.5,385.5C 183.9,340.897 113.567,295.897 43.5,250.5C 113.365,205.739 183.032,160.739 252.5,115.5 Z"/></g>
<g><path style="opacity:1" fill="#042776" d="M 343.5,262.5 C 325.347,247.238 305.014,235.404 282.5,227C 282.043,226.586 281.709,226.086 281.5,225.5C 282.274,224.289 283.107,224.289 284,225.5C 284.309,224.234 284.809,223.067 285.5,222C 284.333,221.5 283.5,220.667 283,219.5C 282.097,220.701 280.931,221.535 279.5,222C 280.731,223.183 280.731,224.349 279.5,225.5C 245.226,213.934 210.226,209.6 174.5,212.5C 187.564,185.436 208.898,168.603 238.5,162C 286.953,157.298 320.787,177.131 340,221.5C 344.367,234.914 345.533,248.581 343.5,262.5 Z"/></g>
<g><path style="opacity:1" fill="#e8f1ee" d="M 174.5,212.5 C 210.226,209.6 245.226,213.934 279.5,225.5C 280.731,224.349 280.731,223.183 279.5,222C 280.931,221.535 282.097,220.701 283,219.5C 283.5,220.667 284.333,221.5 285.5,222C 284.809,223.067 284.309,224.234 284,225.5C 283.107,224.289 282.274,224.289 281.5,225.5C 281.709,226.086 282.043,226.586 282.5,227C 305.014,235.404 325.347,247.238 343.5,262.5C 343.006,267.303 342.006,271.97 340.5,276.5C 304.534,246.032 262.867,229.032 215.5,225.5C 210.845,224.834 206.012,224.501 201,224.5C 193.604,224.327 186.438,224.993 179.5,226.5C 175.865,227.114 172.198,227.448 168.5,227.5C 169.343,221.957 171.343,216.957 174.5,212.5 Z"/></g>
<g><path style="opacity:1" fill="#0e9b3c" d="M 196.5,214.5 C 203.158,213.344 205.158,215.844 202.5,222C 200.527,222.495 198.527,222.662 196.5,222.5C 196.5,219.833 196.5,217.167 196.5,214.5 Z"/></g>
<g><path style="opacity:1" fill="#d3eddb" d="M 197.5,215.5 C 202.159,215.015 203.492,216.848 201.5,221C 200.207,221.49 198.873,221.657 197.5,221.5C 197.5,219.5 197.5,217.5 197.5,215.5 Z"/></g>
<g><path style="opacity:1" fill="#29a44d" d="M 176.5,215.5 C 180.976,215.822 182.476,218.156 181,222.5C 177.509,225.446 175.342,224.612 174.5,220C 174.519,218.167 175.185,216.667 176.5,215.5 Z"/></g>
<g><path style="opacity:1" fill="#dff2e6" d="M 176.5,217.5 C 180.161,217.35 181.161,218.85 179.5,222C 175.707,222.487 174.707,220.987 176.5,217.5 Z"/></g>
<g><path style="opacity:1" fill="#20a248" d="M 207.5,214.5 C 209.857,214.337 212.19,214.503 214.5,215C 207.365,215.585 207.032,216.752 213.5,218.5C 207.032,220.248 207.365,221.415 214.5,222C 212.19,222.497 209.857,222.663 207.5,222.5C 207.5,219.833 207.5,217.167 207.5,214.5 Z"/></g>
<g><path style="opacity:1" fill="#3bac5c" d="M 185.5,214.5 C 192.232,213.482 194.232,216.148 191.5,222.5C 190.476,221.147 189.143,220.48 187.5,220.5C 187.719,221.675 187.386,222.675 186.5,223.5C 185.516,220.572 185.183,217.572 185.5,214.5 Z"/></g>
<g><path style="opacity:1" fill="#daf0e2" d="M 186.5,216.5 C 187.978,216.238 189.311,216.571 190.5,217.5C 189.833,217.833 189.167,218.167 188.5,218.5C 187.287,218.253 186.62,217.586 186.5,216.5 Z"/></g>
<g><path style="opacity:1" fill="#41ae61" d="M 218.5,214.5 C 220.662,214.897 221.995,216.231 222.5,218.5C 223.386,217.675 223.719,216.675 223.5,215.5C 224.5,215.5 225.5,215.5 226.5,215.5C 226.579,218.271 226.079,220.937 225,223.5C 224.667,222.5 224.333,221.5 224,220.5C 222.447,224.299 221.114,224.299 220,220.5C 219.667,221.5 219.333,222.5 219,223.5C 218.502,220.518 218.335,217.518 218.5,214.5 Z"/></g>
<g><path style="opacity:1" fill="#35aa57" d="M 236.5,217.5 C 238.564,217.687 240.564,218.187 242.5,219C 237.822,219.197 237.488,220.197 241.5,222C 236.27,222.909 236.27,224.075 241.5,225.5C 241.333,225.833 241.167,226.167 241,226.5C 239.301,225.594 237.467,225.261 235.5,225.5C 236.092,222.873 236.425,220.206 236.5,217.5 Z"/></g>
<g><path style="opacity:1" fill="#8090b9" d="M 215.5,225.5 C 203.482,225.358 191.482,225.691 179.5,226.5C 186.438,224.993 193.604,224.327 201,224.5C 206.012,224.501 210.845,224.834 215.5,225.5 Z"/></g>
<g><path style="opacity:1" fill="#032776" d="M 215.5,225.5 C 262.867,229.032 304.534,246.032 340.5,276.5C 328.603,310.557 304.936,331.39 269.5,339C 230.094,343.542 199.594,329.375 178,296.5C 165.799,274.682 162.633,251.682 168.5,227.5C 172.198,227.448 175.865,227.114 179.5,226.5C 191.482,225.691 203.482,225.358 215.5,225.5 Z"/></g>
<g><path style="opacity:1" fill="#33a752" d="M 253.5,220.5 C 255.564,220.687 257.564,221.187 259.5,222C 260.517,223.049 260.684,224.216 260,225.5C 257.371,225.928 255.038,226.928 253,228.5C 252.57,225.808 252.737,223.141 253.5,220.5 Z"/></g>
<g><path style="opacity:1" fill="#cdebd8" d="M 254.5,222.5 C 256.429,222.231 258.095,222.731 259.5,224C 258.667,224.167 257.833,224.333 257,224.5C 255.624,224.316 254.791,223.649 254.5,222.5 Z"/></g>
<g><path style="opacity:1" fill="#4aaf62" d="M 264.5,223.5 C 271.817,223.622 273.317,226.622 269,232.5C 268.517,231.552 268.351,230.552 268.5,229.5C 266.508,229.328 264.842,229.995 263.5,231.5C 263.167,231 262.833,230.5 262.5,230C 263.274,227.846 263.941,225.679 264.5,223.5 Z"/></g>
<g><path style="opacity:1" fill="#e6eaf2" d="M 181.5,231.5 C 182.931,232.78 183.598,234.447 183.5,236.5C 181.641,236.539 180.308,235.706 179.5,234C 180.756,233.583 181.423,232.75 181.5,231.5 Z"/></g>
<g><path style="opacity:1" fill="#41ab5a" d="M 276.5,227.5 C 280.976,227.822 282.476,230.156 281,234.5C 277.461,237.328 274.961,236.495 273.5,232C 274.315,230.357 275.315,228.857 276.5,227.5 Z"/></g>
<g><path style="opacity:1" fill="#e8f6ee" d="M 276.5,229.5 C 277.5,229.5 278.5,229.5 279.5,229.5C 279.884,231.665 279.217,233.332 277.5,234.5C 275.296,233.218 274.962,231.551 276.5,229.5 Z"/></g>
<g><path style="opacity:1" fill="#2fa651" d="M 296.5,235.5 C 303.372,237.287 304.206,240.621 299,245.5C 298.51,244.207 298.343,242.873 298.5,241.5C 296.549,241.227 295.049,241.893 294,243.5C 293.933,240.613 294.767,237.946 296.5,235.5 Z"/></g>
<g><path style="opacity:1" fill="#2ea54f" d="M 286.5,231.5 C 288.912,231.244 290.579,232.244 291.5,234.5C 289.982,233.696 288.148,233.696 286,234.5C 285.507,238.502 286.674,239.169 289.5,236.5C 291.77,238.049 291.437,239.383 288.5,240.5C 284.024,238.461 283.357,235.461 286.5,231.5 Z"/></g>
<g><path style="opacity:1" fill="#daf0e2" d="M 296.5,237.5 C 298.09,237.628 299.423,238.295 300.5,239.5C 298.167,240.941 296.834,240.275 296.5,237.5 Z"/></g>
<g><path style="opacity:1" fill="#abb7d2" d="M 277.5,244.5 C 278.978,244.238 280.311,244.571 281.5,245.5C 280.68,247.111 279.346,247.778 277.5,247.5C 277.5,246.5 277.5,245.5 277.5,244.5 Z"/></g>
<g><path style="opacity:1" fill="#39a854" d="M 306.5,240.5 C 308.609,241.391 310.609,242.558 312.5,244C 310.536,244.624 308.869,244.124 307.5,242.5C 307.167,242.833 306.833,243.167 306.5,243.5C 307.833,244.5 309.167,245.5 310.5,246.5C 308.5,246.5 306.5,246.5 304.5,246.5C 306.167,247.833 307.833,249.167 309.5,250.5C 309.167,250.833 308.833,251.167 308.5,251.5C 306.5,250.167 304.5,248.833 302.5,247.5C 303.592,244.976 304.926,242.643 306.5,240.5 Z"/></g>
<g><path style="opacity:1" fill="#31a44e" d="M 314.5,247.5 C 317.596,246.907 319.929,247.907 321.5,250.5C 321.167,250.833 320.833,251.167 320.5,251.5C 319.713,250.758 319.047,249.925 318.5,249C 317.668,248.312 317.002,248.479 316.5,249.5C 317.711,250.874 318.711,252.374 319.5,254C 318.167,256.984 316.333,257.151 314,254.5C 313.449,250.807 313.949,250.64 315.5,254C 316.332,254.688 316.998,254.521 317.5,253.5C 315.585,251.929 314.585,249.929 314.5,247.5 Z"/></g>
<g><path style="opacity:1" fill="#c0c8dc" d="M 220.5,251.5 C 223.819,252.319 224.319,253.986 222,256.5C 221.333,255.167 220.667,255.167 220,256.5C 217.919,254.443 218.086,252.777 220.5,251.5 Z"/></g>
<g><path style="opacity:1" fill="#3dab5a" d="M 324.5,253.5 C 328.509,253.014 330.342,254.68 330,258.5C 329.28,256.745 328.113,255.911 326.5,256C 328.016,257.897 328.683,260.064 328.5,262.5C 324.491,262.986 322.658,261.32 323,257.5C 323.508,259.904 324.675,260.571 326.5,259.5C 324.914,257.827 324.247,255.827 324.5,253.5 Z"/></g>
<g><path style="opacity:1" fill="#bfc7dc" d="M 254.5,262.5 C 256.87,262.983 257.537,264.149 256.5,266C 252.448,266.392 251.781,265.225 254.5,262.5 Z"/></g>
<g><path style="opacity:1" fill="#38aa58" d="M 333.5,260.5 C 339.452,260.609 340.786,263.109 337.5,268C 331.202,268.495 329.868,265.995 333.5,260.5 Z"/></g>
<g><path style="opacity:1" fill="#e9f6ee" d="M 333.5,262.5 C 334.833,262.5 336.167,262.5 337.5,262.5C 337.114,266.738 335.448,267.404 332.5,264.5C 332.863,263.817 333.196,263.15 333.5,262.5 Z"/></g>
<g><path style="opacity:1" fill="#b7c3d9" d="M 197.5,265.5 C 199.337,265.639 199.67,266.306 198.5,267.5C 197.702,267.043 197.369,266.376 197.5,265.5 Z"/></g>
<g><path style="opacity:1" fill="#bfc7dc" d="M 189.5,268.5 C 193.415,271.416 192.915,273.749 188,275.5C 187.167,272.829 187.667,270.496 189.5,268.5 Z"/></g>
<g><path style="opacity:1" fill="#b3bed6" d="M 244.5,271.5 C 245.5,271.5 246.5,271.5 247.5,271.5C 247.5,272.5 247.5,273.5 247.5,274.5C 246.5,274.5 245.5,274.5 244.5,274.5C 244.5,273.5 244.5,272.5 244.5,271.5 Z"/></g>
<g><path style="opacity:1" fill="#8f9cc1" d="M 264.5,270.5 C 267.084,271.048 268.084,272.715 267.5,275.5C 266.167,275.5 264.833,275.5 263.5,275.5C 263.366,273.708 263.699,272.042 264.5,270.5 Z"/></g>
<g><path style="opacity:1" fill="#aebad3" d="M 249.5,278.5 C 251.337,278.639 251.67,279.306 250.5,280.5C 249.702,280.043 249.369,279.376 249.5,278.5 Z"/></g>
<g><path style="opacity:1" fill="#a0abcb" d="M 178.5,277.5 C 181.09,278.051 181.756,279.384 180.5,281.5C 179.311,282.429 177.978,282.762 176.5,282.5C 176.365,280.446 177.032,278.779 178.5,277.5 Z"/></g>
<g><path style="opacity:1" fill="#cad1e2" d="M 317.5,279.5 C 318.473,279.987 319.473,280.487 320.5,281C 319.663,282.011 319.33,283.178 319.5,284.5C 318.167,284.5 316.833,284.5 315.5,284.5C 315.67,283.178 315.337,282.011 314.5,281C 315.737,280.768 316.737,280.268 317.5,279.5 Z"/></g>
<g><path style="opacity:1" fill="#9ba8c8" d="M 205.5,280.5 C 206.919,279.549 208.585,279.216 210.5,279.5C 210.5,280.833 210.5,282.167 210.5,283.5C 209.167,283.5 207.833,283.5 206.5,283.5C 206.737,282.209 206.404,281.209 205.5,280.5 Z"/></g>
<g><path style="opacity:1" fill="#bcc5db" d="M 328.5,281.5 C 329.5,281.5 330.5,281.5 331.5,281.5C 331.5,282.5 331.5,283.5 331.5,284.5C 330.5,284.5 329.5,284.5 328.5,284.5C 328.5,283.5 328.5,282.5 328.5,281.5 Z"/></g>
<g><path style="opacity:1" fill="#b3bed6" d="M 204.5,288.5 C 205.5,288.5 206.5,288.5 207.5,288.5C 207.5,289.5 207.5,290.5 207.5,291.5C 206.5,291.5 205.5,291.5 204.5,291.5C 204.5,290.5 204.5,289.5 204.5,288.5 Z"/></g>
<g><path style="opacity:1" fill="#d9deea" d="M 254.5,287.5 C 255.309,288.469 256.309,289.302 257.5,290C 256.888,291.303 256.554,292.47 256.5,293.5C 255.268,292.855 253.935,292.689 252.5,293C 253.833,292 253.833,291 252.5,290C 253.756,289.583 254.423,288.75 254.5,287.5 Z"/></g>
<g><path style="opacity:1" fill="#8796bd" d="M 320.5,287.5 C 323.084,288.048 324.084,289.715 323.5,292.5C 322.167,292.5 320.833,292.5 319.5,292.5C 319.67,291.178 319.337,290.011 318.5,289C 319.416,288.722 320.082,288.222 320.5,287.5 Z"/></g>
<g><path style="opacity:1" fill="#bfc7dc" d="M 218.5,294.5 C 219.534,295.687 220.867,296.52 222.5,297C 221.833,297.667 221.167,298.333 220.5,299C 221.451,299.718 221.617,300.551 221,301.5C 218.638,300.648 216.805,299.148 215.5,297C 217.119,296.764 218.119,295.931 218.5,294.5 Z"/></g>
<g><path style="opacity:1" fill="#bbc4da" d="M 315.5,294.5 C 317.213,295.635 317.88,297.302 317.5,299.5C 316.127,299.657 314.793,299.49 313.5,299C 313.164,297.371 313.83,295.871 315.5,294.5 Z"/></g>
<g><path style="opacity:1" fill="#bfc8dd" d="M 273.5,299.5 C 276.957,299.667 277.29,300.667 274.5,302.5C 273.614,301.675 273.281,300.675 273.5,299.5 Z"/></g>
<g><path style="opacity:1" fill="#9eabca" d="M 307.5,300.5 C 308.5,300.5 309.5,300.5 310.5,300.5C 310.5,301.5 310.5,302.5 310.5,303.5C 309.5,303.5 308.5,303.5 307.5,303.5C 307.5,302.5 307.5,301.5 307.5,300.5 Z"/></g>
<g><path style="opacity:1" fill="#b8c2d8" d="M 288.5,301.5 C 291.957,301.667 292.29,302.667 289.5,304.5C 288.614,303.675 288.281,302.675 288.5,301.5 Z"/></g>
<g><path style="opacity:1" fill="#d7dde9" d="M 299.5,306.5 C 301.104,307.287 301.771,308.62 301.5,310.5C 297.87,309.938 297.203,308.605 299.5,306.5 Z"/></g>
<g><path style="opacity:1" fill="#d0d8e6" d="M 280.5,308.5 C 282.912,308.694 283.912,310.027 283.5,312.5C 282.5,312.5 281.5,312.5 280.5,312.5C 280.5,311.167 280.5,309.833 280.5,308.5 Z"/></g>
<g><path style="opacity:1" fill="#a3afcc" d="M 299.5,315.5 C 301.104,316.287 301.771,317.62 301.5,319.5C 300.5,319.5 299.5,319.5 298.5,319.5C 298.433,318.041 298.766,316.708 299.5,315.5 Z"/></g>
</svg>
